<?xml version="1.0" encoding="UTF-8"?>
<svg version="1.1" xmlns="http://www.w3.org/2000/svg" width="512" height="512">
  <path
    d="M0 0 C4.6184563 2.18768983 6.72274653 4.49747779 9 9 C9.43237305 11.86254883 9.43237305 11.86254883 9.51171875 14.95703125 C9.56489258 16.62475586 9.56489258 16.62475586 9.61914062 18.32617188 C9.64169922 19.47666016 9.66425781 20.62714844 9.6875 21.8125 C9.72166016 22.98232422 9.75582031 24.15214844 9.79101562 25.35742188 C9.87332316 28.23818554 9.94253178 31.11865138 10 34 C10.59611084 34.05945801 11.19222168 34.11891602 11.80639648 34.18017578 C60.31798547 39.19527199 105.60036008 56.56860162 141.75 89.9375 C143.72789558 91.75057094 145.75196817 93.47039014 147.8125 95.1875 C188.975562 131.2983552 211.46210467 186.35801346 216 240 C217.08885498 240.01401855 217.08885498 240.01401855 218.19970703 240.02832031 C221.50881214 240.08221281 224.81653238 240.16582439 228.125 240.25 C229.26710938 240.26417969 230.40921875 240.27835938 231.5859375 240.29296875 C242.37949718 240.60673502 242.37949718 240.60673502 247 245 C251.05630398 250.22259857 250.77397544 255.65340142 250 262 C247.81231017 266.6184563 245.50252221 268.72274653 241 271 C238.13745117 271.43237305 238.13745117 271.43237305 235.04296875 271.51171875 C233.37524414 271.56489258 233.37524414 271.56489258 231.67382812 271.61914062 C230.52333984 271.64169922 229.37285156 271.66425781 228.1875 271.6875 C227.01767578 271.72166016 225.84785156 271.75582031 224.64257812 271.79101562 C221.76181446 271.87332316 218.88134862 271.94253178 216 272 C215.94054199 272.59611084 215.88108398 273.19222168 215.81982422 273.80639648 C210.80472801 322.31798547 193.43139838 367.60036008 160.0625 403.75 C158.24942906 405.72789558 156.52960986 407.75196817 154.8125 409.8125 C118.7016448 450.975562 63.64198654 473.46210467 10 478 C9.98598145 479.08885498 9.98598145 479.08885498 9.97167969 480.19970703 C9.91778719 483.50881214 9.83417561 486.81653238 9.75 490.125 C9.73582031 491.26710938 9.72164063 492.40921875 9.70703125 493.5859375 C9.39326498 504.37949718 9.39326498 504.37949718 5 509 C-0.22259857 513.05630398 -5.65340142 512.77397544 -12 512 C-16.6184563 509.81231017 -18.72274653 507.50252221 -21 503 C-21.43237305 500.13745117 -21.43237305 500.13745117 -21.51171875 497.04296875 C-21.54716797 495.93115234 -21.58261719 494.81933594 -21.61914062 493.67382812 C-21.64169922 492.52333984 -21.66425781 491.37285156 -21.6875 490.1875 C-21.72166016 489.01767578 -21.75582031 487.84785156 -21.79101562 486.64257812 C-21.87332316 483.76181446 -21.94253178 480.88134862 -22 478 C-22.89416626 477.91081299 -22.89416626 477.91081299 -23.80639648 477.81982422 C-72.31798547 472.80472801 -117.60036008 455.43139838 -153.75 422.0625 C-155.72789558 420.24942906 -157.75196817 418.52960986 -159.8125 416.8125 C-200.975562 380.7016448 -223.46210467 325.64198654 -228 272 C-228.72590332 271.9906543 -229.45180664 271.98130859 -230.19970703 271.97167969 C-233.50881214 271.91778719 -236.81653238 271.83417561 -240.125 271.75 C-241.26710937 271.73582031 -242.40921875 271.72164063 -243.5859375 271.70703125 C-254.37949718 271.39326498 -254.37949718 271.39326498 -259 267 C-263.05630398 261.77740143 -262.77397544 256.34659858 -262 250 C-259.81231017 245.3815437 -257.50252221 243.27725347 -253 241 C-250.13745117 240.56762695 -250.13745117 240.56762695 -247.04296875 240.48828125 C-245.93115234 240.45283203 -244.81933594 240.41738281 -243.67382812 240.38085938 C-241.9480957 240.34702148 -241.9480957 240.34702148 -240.1875 240.3125 C-239.01767578 240.27833984 -237.84785156 240.24417969 -236.64257812 240.20898438 C-233.76181446 240.12667684 -230.88134862 240.05746822 -228 240 C-227.94054199 239.40388916 -227.88108398 238.80777832 -227.81982422 238.19360352 C-223.16668001 193.18321687 -208.02744585 151.1396238 -179 116 C-178.525625 115.42411133 -178.05125 114.84822266 -177.5625 114.25488281 C-167.97243896 102.68562297 -157.83415671 92.31317625 -146 83 C-145.06027344 82.23171875 -144.12054688 81.4634375 -143.15234375 80.671875 C-108.42683276 52.89146621 -66.09093871 37.72991527 -22 34 C-21.98598145 32.91114502 -21.98598145 32.91114502 -21.97167969 31.80029297 C-21.91778719 28.49118786 -21.83417561 25.18346762 -21.75 21.875 C-21.73582031 20.73289062 -21.72164062 19.59078125 -21.70703125 18.4140625 C-21.39326498 7.62050282 -21.39326498 7.62050282 -17 3 C-11.77740143 -1.05630398 -6.34659858 -0.77397544 0 0 Z M-41.5625 68 C-42.64660156 68.22002686 -43.73070312 68.44005371 -44.84765625 68.66674805 C-80.17244767 76.20239691 -111.43582833 92.65527015 -137.52050781 117.58789062 C-138.5016484 118.5243456 -139.48795247 119.45542231 -140.47949219 120.38085938 C-168.80679665 146.85951312 -186.14246927 182.50199115 -193.875 220.125 C-194.0905957 221.16809326 -194.30619141 222.21118652 -194.52832031 223.28588867 C-195.69639192 229.30494423 -196.21664562 234.8702034 -196 241 C-195.3294458 241.01458252 -194.6588916 241.02916504 -193.96801758 241.04418945 C-190.91561178 241.118883 -187.86427415 241.21547299 -184.8125 241.3125 C-183.22985352 241.34633789 -183.22985352 241.34633789 -181.61523438 241.38085938 C-180.59365234 241.41630859 -179.57207031 241.45175781 -178.51953125 241.48828125 C-177.11344604 241.52755737 -177.11344604 241.52755737 -175.67895508 241.56762695 C-171.28932564 242.27609626 -167.83158814 244.60209424 -165 248 C-163.25806132 253.22581604 -163.04969602 258.8731292 -165.3125 263.9375 C-169.25 268.75 -169.25 268.75 -173 270 C-174.77166975 270.14835948 -176.54767612 270.24770018 -178.32421875 270.31640625 C-179.86625977 270.37924805 -179.86625977 270.37924805 -181.43945312 270.44335938 C-182.51130859 270.48267578 -183.58316406 270.52199219 -184.6875 270.5625 C-185.77095703 270.60568359 -186.85441406 270.64886719 -187.97070312 270.69335938 C-190.64700791 270.79946838 -193.32340526 270.90152361 -196 271 C-196.23550445 278.11664999 -195.4147528 284.59351217 -194 291.5625 C-193.77997314 292.64660156 -193.55994629 293.73070312 -193.33325195 294.84765625 C-185.79760309 330.17244767 -169.34472985 361.43582833 -144.41210938 387.52050781 C-143.4756544 388.5016484 -142.54457769 389.48795247 -141.61914062 390.47949219 C-113.25224031 420.82687426 -71.18802316 441.24753579 -30 446 C-26.99698842 446.08151369 -24.00308262 446.07002006 -21 446 C-21.00169189 444.9644397 -21.00169189 444.9644397 -21.00341797 443.90795898 C-20.99123902 440.75017062 -20.93350156 437.59475625 -20.875 434.4375 C-20.87757813 433.35146484 -20.88015625 432.26542969 -20.8828125 431.14648438 C-20.72731929 424.75182594 -20.12222652 420.84249021 -15.57470703 416.19165039 C-11.40978789 413.03987205 -5.95818207 413.5478138 -1 414 C2.25900019 415.45614902 4.71264424 417.25517308 7 420 C7.99455909 422.98367726 8.19559632 425.2004192 8.31640625 428.32421875 C8.37924805 429.86625977 8.37924805 429.86625977 8.44335938 431.43945312 C8.48267578 432.51130859 8.52199219 433.58316406 8.5625 434.6875 C8.62727539 436.31268555 8.62727539 436.31268555 8.69335938 437.97070312 C8.79946838 440.64700791 8.90152361 443.32340526 9 446 C16.11664999 446.23550445 22.59351217 445.4147528 29.5625 444 C31.18865234 443.66995972 31.18865234 443.66995972 32.84765625 443.33325195 C68.17244767 435.79760309 99.43582833 419.34472985 125.52050781 394.41210938 C126.5016484 393.4756544 127.48795247 392.54457769 128.47949219 391.61914062 C158.82687426 363.25224031 179.24753579 321.18802316 184 280 C184.08151369 276.99698842 184.07002006 274.00308262 184 271 C183.3294458 270.98541748 182.6588916 270.97083496 181.96801758 270.95581055 C178.91561178 270.881117 175.86427415 270.78452701 172.8125 270.6875 C171.22985352 270.65366211 171.22985352 270.65366211 169.61523438 270.61914062 C168.59365234 270.58369141 167.57207031 270.54824219 166.51953125 270.51171875 C165.11344604 270.47244263 165.11344604 270.47244263 163.67895508 270.43237305 C159.24504633 269.71675723 156.65366743 267.72433418 153.6875 264.4375 C151.42571932 259.83016898 151.18796682 256.04444853 152 251 C154.23740475 246.44232365 156.52481423 244.27339923 161 242 C163.67895508 241.56762695 163.67895508 241.56762695 166.51953125 241.48828125 C167.54111328 241.45283203 168.56269531 241.41738281 169.61523438 241.38085938 C170.67033203 241.35830078 171.72542969 241.33574219 172.8125 241.3125 C173.88693359 241.27833984 174.96136719 241.24417969 176.06835938 241.20898438 C178.71213533 241.12673357 181.35558921 241.05750791 184 241 C184.23550445 233.88335001 183.4147528 227.40648783 182 220.4375 C181.66995972 218.81134766 181.66995972 218.81134766 181.33325195 217.15234375 C173.79760309 181.82755233 157.34472985 150.56417167 132.41210938 124.47949219 C131.4756544 123.4983516 130.54457769 122.51204753 129.61914062 121.52050781 C103.14048688 93.19320335 67.49800885 75.85753073 29.875 68.125 C28.31036011 67.80160645 28.31036011 67.80160645 26.71411133 67.47167969 C20.69505577 66.30360808 15.1297966 65.78335438 9 66 C8.98541748 66.6705542 8.97083496 67.3411084 8.95581055 68.03198242 C8.881117 71.08438822 8.78452701 74.13572585 8.6875 77.1875 C8.65366211 78.77014648 8.65366211 78.77014648 8.61914062 80.38476562 C8.58369141 81.40634766 8.54824219 82.42792969 8.51171875 83.48046875 C8.48553467 84.41785889 8.45935059 85.35524902 8.43237305 86.32104492 C7.71675723 90.75495367 5.72433418 93.34633257 2.4375 96.3125 C-2.16546595 98.57213783 -5.95964611 98.81956974 -11 98 C-15.00981783 95.95863819 -17.63764814 93.80902435 -20 90 C-20.43237305 87.34277344 -20.43237305 87.34277344 -20.51171875 84.359375 C-20.54716797 83.28945312 -20.58261719 82.21953125 -20.61914062 81.1171875 C-20.64169922 80.00601563 -20.66425781 78.89484375 -20.6875 77.75 C-20.72166016 76.62335938 -20.75582031 75.49671875 -20.79101562 74.3359375 C-20.87343014 71.55739099 -20.94260298 68.77915748 -21 66 C-28.11664999 65.76449555 -34.59351217 66.5852472 -41.5625 68 Z "
    fill="#fff" transform="translate(262,0)" />
  <path
    d="M0 0 C26.74156623 23.02987157 42.67555467 56.03149167 45.57421875 91.06860352 C47.61928773 130.85844655 35.50205758 165.68010243 9.00830078 195.50610352 C-14.28516889 220.88543717 -47.46230455 236.4257844 -81.8815918 238.19482422 C-121.57509957 239.40020887 -156.04305118 227.03644046 -185.42578125 200.06860352 C-210.59593181 176.26421965 -225.63401054 142.45194525 -226.62890625 107.82641602 C-227.17751282 68.30577708 -214.08606654 34.20113707 -186.80029297 5.34985352 C-136.02585079 -46.58277786 -53.9374303 -45.43752984 0 0 Z M-158.42578125 22.06860352 C-159.24433594 22.74407227 -160.06289062 23.41954102 -160.90625 24.11547852 C-177.90015509 38.55371105 -188.41144287 58.56606951 -193.42578125 80.06860352 C-193.66941406 81.06633789 -193.91304687 82.06407227 -194.1640625 83.09204102 C-199.64198044 109.699071 -192.46527973 137.30859335 -178.42578125 160.06860352 C-175.95393826 163.59562058 -173.27051415 166.83842016 -170.42578125 170.06860352 C-169.7503125 170.8871582 -169.07484375 171.70571289 -168.37890625 172.54907227 C-153.94067371 189.54297735 -133.92831525 200.05426514 -112.42578125 205.06860352 C-111.42804688 205.31223633 -110.4303125 205.55586914 -109.40234375 205.80688477 C-82.79531377 211.2848027 -55.18579142 204.108102 -32.42578125 190.06860352 C-28.89876418 187.59676053 -25.6559646 184.91333642 -22.42578125 182.06860352 C-21.60722656 181.39313477 -20.78867187 180.71766602 -19.9453125 180.02172852 C-2.95140741 165.58349598 7.55988037 145.57113752 12.57421875 124.06860352 C12.81785156 123.07086914 13.06148437 122.07313477 13.3125 121.04516602 C18.79041794 94.43813603 11.61371723 66.82861368 -2.42578125 44.06860352 C-4.89762424 40.54158645 -7.58104835 37.29878687 -10.42578125 34.06860352 C-11.43898438 32.84077148 -11.43898438 32.84077148 -12.47265625 31.58813477 C-26.91088879 14.59422968 -46.92324725 4.08294189 -68.42578125 -0.93139648 C-69.42351562 -1.1750293 -70.42125 -1.41866211 -71.44921875 -1.66967773 C-101.78039087 -7.91433082 -135.3593532 1.75463999 -158.42578125 22.06860352 Z "
    fill="#fff" transform="translate(346.42578125,153.931396484375)" />
  <path
    d="M0 0 C4.23301121 2.82200747 7.17159664 5.95228992 8.8125 10.875 C9.41061396 16.97576244 7.95644757 20.80234644 4.8125 25.875 C2.86920792 28.22500456 0.7294916 30.29828425 -1.5 32.375 C-5.68982251 36.36104703 -9.61820925 40.43976752 -13.39477539 44.82177734 C-16.41728776 48.28348632 -19.58796615 51.60363355 -22.75 54.9375 C-26.91845789 59.34362454 -31.08351993 63.75149475 -35.19921875 68.20703125 C-35.82948975 68.88822021 -36.45976074 69.56940918 -37.10913086 70.27124023 C-38.29875095 71.5587113 -39.48589959 72.84847186 -40.67016602 74.14086914 C-46.08162629 79.98765024 -49.66758107 82.87220883 -57.95703125 83.203125 C-64.44635585 82.2484783 -68.64748416 77.85819668 -73.046875 73.4140625 C-73.67732727 72.78648041 -74.30777954 72.15889832 -74.95733643 71.51229858 C-76.2820502 70.18961803 -77.6030162 68.86317441 -78.92041016 67.53320312 C-80.93459012 65.50293312 -82.96430704 63.48919531 -84.99609375 61.4765625 C-86.28481737 60.18585684 -87.57261028 58.89422109 -88.859375 57.6015625 C-89.4645697 57.00244049 -90.0697644 56.40331848 -90.69329834 55.78604126 C-94.77149724 51.63910867 -96.89269152 48.47914153 -97.5625 42.5625 C-96.95618895 36.60044135 -94.90808044 32.55361506 -90.625 28.375 C-85.84731891 26.29019371 -81.31853484 25.89491469 -76.1875 26.875 C-71.1198626 29.67374881 -67.30767084 33.51232414 -63.3125 37.625 C-62.71953125 38.22699219 -62.1265625 38.82898438 -61.515625 39.44921875 C-60.06826876 40.91991945 -58.6272237 42.3968267 -57.1875 43.875 C-52.63906911 40.16199519 -48.73716618 36.34860285 -44.9375 31.87890625 C-43.25765423 29.95533286 -41.51099781 28.16186504 -39.6875 26.375 C-37.3530566 24.07662967 -35.141774 21.72885707 -33 19.25 C-29.73805386 15.49359596 -26.45388628 11.75966897 -23.125 8.0625 C-22.38310425 7.21727783 -22.38310425 7.21727783 -21.6262207 6.35498047 C-15.43136055 -0.47301348 -8.84908291 -3.12320573 0 0 Z "
    fill="#fff" transform="translate(300.1875,215.125)" />
</svg>