<?xml version="1.0" standalone="no"?>
<!DOCTYPE svg PUBLIC "-//W3C//DTD SVG 20010904//EN" "http://www.w3.org/TR/2001/REC-SVG-20010904/DTD/svg10.dtd">
<svg version="1.0" xmlns="http://www.w3.org/2000/svg"
  width="752.000000pt" height="752.000000pt" viewBox="0 0 752.000000 752.000000"
  preserveAspectRatio="xMidYMid meet">

  <g transform="translate(0.000000,752.000000) scale(0.100000,-0.100000)"
    fill="#fff" stroke="none">
    <path
      d="M3966 5428 c-13 -18 -16 -53 -16 -175 0 -186 4 -193 100 -193 l60 0
0 -80 c0 -79 0 -80 -27 -86 -166 -36 -320 -96 -450 -175 l-86 -51 -86 86 c-53
52 -94 86 -107 86 -13 0 -78 -56 -178 -152 -131 -128 -157 -158 -156 -182 0
-22 19 -48 84 -115 l85 -86 -36 -55 c-49 -76 -116 -219 -148 -315 -93 -278
-92 -604 4 -886 103 -307 304 -570 566 -744 171 -113 345 -182 550 -217 164
-28 399 -21 558 16 276 65 510 198 710 406 116 120 187 221 257 365 97 199
130 337 137 572 4 135 2 193 -12 275 -47 284 -178 545 -378 754 -209 219 -446
351 -749 418 -28 6 -28 7 -28 86 l0 80 58 0 c95 0 96 2 100 185 3 130 1 160
-13 181 l-15 24 -385 0 -384 0 -15 -22z m702 -170 l-3 -83 -300 0 -300 0 -3
83 -3 82 306 0 306 0 -3 -82z m-158 -260 l0 -63 -145 0 -145 0 0 63 0 62 145
0 145 0 0 -62z m61 -204 c491 -82 907 -438 1052 -900 57 -180 74 -436 42 -620
-90 -515 -471 -925 -983 -1056 -202 -51 -446 -50 -656 3 -304 77 -572 270
-752 539 -228 344 -289 757 -167 1144 120 382 476 732 868 851 181 55 410 70
596 39z m-1162 -148 c43 -43 50 -55 38 -62 -21 -12 -82 -70 -141 -133 l-49
-53 -53 53 -54 53 97 98 c54 54 100 98 103 98 3 0 30 -24 59 -54z" />
    <path
      d="M4145 4580 c-559 -121 -932 -619 -884 -1183 26 -305 189 -599 438
-788 90 -68 265 -153 386 -186 91 -25 115 -28 275 -28 178 0 217 5 350 47 269
85 516 298 647 558 127 251 150 580 59 846 -120 352 -413 626 -774 721 -135
36 -365 42 -497 13z m165 -143 c0 -59 12 -77 49 -77 41 0 61 27 61 82 0 55 -6
54 111 33 142 -25 269 -75 389 -154 75 -49 203 -173 256 -247 91 -128 163
-312 180 -463 l7 -61 -56 0 c-50 0 -59 -3 -74 -26 -15 -24 -15 -29 -2 -53 13
-23 22 -26 72 -29 55 -3 57 -4 57 -30 0 -49 -37 -206 -65 -277 -66 -166 -208
-349 -351 -451 -125 -89 -311 -161 -466 -179 l-58 -7 0 44 c0 55 -22 88 -59
88 -39 0 -51 -17 -51 -77 0 -62 5 -60 -121 -38 -314 55 -600 274 -730 561 -39
85 -77 220 -85 299 l-7 65 48 0 c53 0 85 20 85 53 0 37 -29 57 -82 57 -47 0
-48 1 -48 30 0 17 7 65 16 107 69 333 290 600 609 733 69 28 233 68 288 69 26
1 27 -1 27 -52z" />
    <path
      d="M4249 4084 c-343 -319 -439 -415 -439 -436 0 -30 34 -51 198 -123
l160 -69 -13 -31 c-7 -16 -72 -159 -144 -317 -72 -158 -131 -296 -131 -306 0
-24 31 -52 57 -52 15 0 141 130 423 438 221 240 409 447 417 459 23 34 10 69
-29 82 -18 5 -98 22 -178 37 -80 15 -146 28 -147 29 -1 0 36 104 82 230 47
127 85 242 85 257 0 29 -23 48 -57 48 -11 0 -133 -106 -284 -246z m96 -173
c-30 -83 -55 -158 -55 -165 0 -30 41 -47 176 -72 76 -15 142 -29 146 -33 6 -5
-349 -403 -443 -496 l-31 -30 15 35 c8 19 45 102 82 183 56 125 66 153 57 172
-8 16 -53 41 -166 91 l-156 68 47 48 c78 77 378 356 381 353 1 -1 -23 -70 -53
-154z" />
    <path
      d="M1812 3928 c-20 -20 -14 -65 10 -82 20 -14 81 -16 468 -16 387 0 448
2 468 16 24 17 30 62 10 82 -17 17 -939 17 -956 0z" />
    <path
      d="M2068 3539 c-25 -14 -24 -75 1 -89 12 -6 130 -10 315 -10 319 0 326
1 326 55 0 54 -6 55 -328 55 -183 0 -304 -5 -314 -11z" />
    <path
      d="M1752 3134 c-24 -17 -30 -62 -10 -82 17 -17 1079 -17 1096 0 20 20
14 65 -10 82 -20 14 -88 16 -538 16 -450 0 -518 -2 -538 -16z" />
  </g>
</svg>